%TF.GenerationSoftware,KiCad,Pcbnew,(6.0.6)*%
%TF.CreationDate,2023-04-06T13:29:05+02:00*%
%TF.ProjectId,1to5UnUn,31746f35-556e-4556-9e2e-6b696361645f,rev?*%
%TF.SameCoordinates,Original*%
%TF.FileFunction,Legend,Top*%
%TF.FilePolarity,Positive*%
%FSLAX46Y46*%
G04 Gerber Fmt 4.6, Leading zero omitted, Abs format (unit mm)*
G04 Created by KiCad (PCBNEW (6.0.6)) date 2023-04-06 13:29:05*
%MOMM*%
%LPD*%
G01*
G04 APERTURE LIST*
%ADD10C,0.300000*%
%ADD11C,0.150000*%
%ADD12C,0.120000*%
G04 APERTURE END LIST*
D10*
X59357142Y-76428571D02*
X58500000Y-76428571D01*
X58928571Y-76428571D02*
X58928571Y-74928571D01*
X58785714Y-75142857D01*
X58642857Y-75285714D01*
X58500000Y-75357142D01*
X60000000Y-76285714D02*
X60071428Y-76357142D01*
X60000000Y-76428571D01*
X59928571Y-76357142D01*
X60000000Y-76285714D01*
X60000000Y-76428571D01*
X60000000Y-75500000D02*
X60071428Y-75571428D01*
X60000000Y-75642857D01*
X59928571Y-75571428D01*
X60000000Y-75500000D01*
X60000000Y-75642857D01*
X61428571Y-74928571D02*
X60714285Y-74928571D01*
X60642857Y-75642857D01*
X60714285Y-75571428D01*
X60857142Y-75500000D01*
X61214285Y-75500000D01*
X61357142Y-75571428D01*
X61428571Y-75642857D01*
X61500000Y-75785714D01*
X61500000Y-76142857D01*
X61428571Y-76285714D01*
X61357142Y-76357142D01*
X61214285Y-76428571D01*
X60857142Y-76428571D01*
X60714285Y-76357142D01*
X60642857Y-76285714D01*
X63285714Y-74928571D02*
X63285714Y-76142857D01*
X63357142Y-76285714D01*
X63428571Y-76357142D01*
X63571428Y-76428571D01*
X63857142Y-76428571D01*
X64000000Y-76357142D01*
X64071428Y-76285714D01*
X64142857Y-76142857D01*
X64142857Y-74928571D01*
X64857142Y-75428571D02*
X64857142Y-76428571D01*
X64857142Y-75571428D02*
X64928571Y-75500000D01*
X65071428Y-75428571D01*
X65285714Y-75428571D01*
X65428571Y-75500000D01*
X65500000Y-75642857D01*
X65500000Y-76428571D01*
X66214285Y-74928571D02*
X66214285Y-76142857D01*
X66285714Y-76285714D01*
X66357142Y-76357142D01*
X66500000Y-76428571D01*
X66785714Y-76428571D01*
X66928571Y-76357142D01*
X67000000Y-76285714D01*
X67071428Y-76142857D01*
X67071428Y-74928571D01*
X67785714Y-75428571D02*
X67785714Y-76428571D01*
X67785714Y-75571428D02*
X67857142Y-75500000D01*
X68000000Y-75428571D01*
X68214285Y-75428571D01*
X68357142Y-75500000D01*
X68428571Y-75642857D01*
X68428571Y-76428571D01*
X68107142Y-67000000D02*
X67964285Y-66928571D01*
X67750000Y-66928571D01*
X67535714Y-67000000D01*
X67392857Y-67142857D01*
X67321428Y-67285714D01*
X67250000Y-67571428D01*
X67250000Y-67785714D01*
X67321428Y-68071428D01*
X67392857Y-68214285D01*
X67535714Y-68357142D01*
X67750000Y-68428571D01*
X67892857Y-68428571D01*
X68107142Y-68357142D01*
X68178571Y-68285714D01*
X68178571Y-67785714D01*
X67892857Y-67785714D01*
X68821428Y-68428571D02*
X68821428Y-66928571D01*
X69678571Y-68428571D01*
X69678571Y-66928571D01*
X70392857Y-68428571D02*
X70392857Y-66928571D01*
X70750000Y-66928571D01*
X70964285Y-67000000D01*
X71107142Y-67142857D01*
X71178571Y-67285714D01*
X71250000Y-67571428D01*
X71250000Y-67785714D01*
X71178571Y-68071428D01*
X71107142Y-68214285D01*
X70964285Y-68357142D01*
X70750000Y-68428571D01*
X70392857Y-68428571D01*
X56535714Y-68000000D02*
X57250000Y-68000000D01*
X56392857Y-68428571D02*
X56892857Y-66928571D01*
X57392857Y-68428571D01*
X57892857Y-68428571D02*
X57892857Y-66928571D01*
X58750000Y-68428571D01*
X58750000Y-66928571D01*
X59250000Y-66928571D02*
X60107142Y-66928571D01*
X59678571Y-68428571D02*
X59678571Y-66928571D01*
D11*
%TO.C,*%
D12*
%TO.C,REF\u002A\u002A*%
X71152400Y-148576000D02*
X71152400Y-163576000D01*
X56152400Y-163576000D02*
X56152400Y-148576000D01*
X56152400Y-148576000D02*
X71152400Y-148576000D01*
%TD*%
M02*
