%TF.GenerationSoftware,KiCad,Pcbnew,(6.0.6)*%
%TF.CreationDate,2023-04-06T13:29:05+02:00*%
%TF.ProjectId,1to5UnUn,31746f35-556e-4556-9e2e-6b696361645f,rev?*%
%TF.SameCoordinates,Original*%
%TF.FileFunction,Profile,NP*%
%FSLAX46Y46*%
G04 Gerber Fmt 4.6, Leading zero omitted, Abs format (unit mm)*
G04 Created by KiCad (PCBNEW (6.0.6)) date 2023-04-06 13:29:05*
%MOMM*%
%LPD*%
G01*
G04 APERTURE LIST*
%TA.AperFunction,Profile*%
%ADD10C,0.100000*%
%TD*%
%TA.AperFunction,Profile*%
%ADD11C,0.050000*%
%TD*%
G04 APERTURE END LIST*
D10*
X56448112Y-164044891D02*
X70852875Y-164060917D01*
D11*
X85335748Y-141667366D02*
X85328398Y-91515003D01*
X48260000Y-132588000D02*
X79248000Y-132588000D01*
X79248000Y-132588000D02*
X79248000Y-101600000D01*
X79248000Y-101600000D02*
X48260000Y-101600000D01*
X48260000Y-101600000D02*
X48260000Y-132588000D01*
D10*
X72237600Y-153568400D02*
X72229506Y-162839400D01*
D11*
X79578200Y-69088000D02*
G75*
G03*
X76377800Y-65887600I-3200400J0D01*
G01*
D10*
X55268338Y-162910918D02*
G75*
G03*
X56448112Y-164044891I1179862J46818D01*
G01*
D11*
X79578200Y-69088000D02*
X79552800Y-85394800D01*
X42172252Y-141718166D02*
X42189400Y-91490800D01*
X79552823Y-85394798D02*
G75*
G03*
X82557373Y-88393228I3222577J224598D01*
G01*
X42172258Y-141718166D02*
G75*
G03*
X45176825Y-144716594I3222542J224566D01*
G01*
X85328433Y-91515003D02*
G75*
G03*
X82557373Y-88393228I-3165033J-18697D01*
G01*
X47736398Y-85471000D02*
X47701200Y-69088000D01*
X50927000Y-65887600D02*
G75*
G03*
X47701200Y-69088000I-25300J-3200400D01*
G01*
X50927000Y-65887600D02*
X76377800Y-65887600D01*
D10*
X82337320Y-144671935D02*
G75*
G03*
X72237600Y-153568400I488750J-10735945D01*
G01*
X55268369Y-162910917D02*
X55270400Y-153619200D01*
X70852876Y-164060946D02*
G75*
G03*
X72229506Y-162839400I-56676J1450346D01*
G01*
X55270399Y-153619200D02*
G75*
G03*
X45176825Y-144716594I-10596539J-1840880D01*
G01*
D11*
X44856400Y-88468198D02*
G75*
G03*
X42189400Y-91490800I205830J-2869532D01*
G01*
X44856400Y-88468199D02*
G75*
G03*
X47736398Y-85471000I-354190J3222629D01*
G01*
X82337324Y-144671991D02*
G75*
G03*
X85335748Y-141667366I-224624J3222591D01*
G01*
M02*
