M48
; DRILL file {KiCad (6.0.6)} date Thu Apr  6 13:29:02 2023
; FORMAT={-:-/ absolute / inch / decimal}
; #@! TF.CreationDate,2023-04-06T13:29:02+02:00
; #@! TF.GenerationSoftware,Kicad,Pcbnew,(6.0.6)
; #@! TF.FileFunction,Plated,1,2,PTH
FMAT,2
INCH
; #@! TA.AperFunction,Plated,PTH,ComponentDrill
T1C0.0197
; #@! TA.AperFunction,Plated,PTH,ComponentDrill
T2C0.0350
; #@! TA.AperFunction,Plated,PTH,ComponentDrill
T3C0.0394
; #@! TA.AperFunction,Plated,PTH,ComponentDrill
T4C0.0791
; #@! TA.AperFunction,Plated,PTH,ComponentDrill
T5C0.1181
%
G90
G05
T1
X1.9882Y-2.8
X2.0141Y-2.7374
X2.0141Y-2.8626
X2.0768Y-2.7114
X2.0768Y-2.8886
X2.1394Y-2.7374
X2.1394Y-2.8626
X2.1654Y-2.8
X2.8445Y-2.8
X2.8704Y-2.7374
X2.8704Y-2.8626
X2.9331Y-2.7114
X2.9331Y-2.8886
X2.9957Y-2.7374
X2.9957Y-2.8626
X3.0217Y-2.8
T2
X2.506Y-5.94
X2.606Y-5.94
T3
X2.15Y-3.5
X2.313Y-5.5413
T4
X2.306Y-6.14
X2.706Y-6.14
T5
X2.0768Y-2.8
X2.9331Y-2.8
T0
M30
