M48
; DRILL file {KiCad 6.0.2+dfsg-1} date Fr 01 Sep 2023 00:23:20 CEST
; FORMAT={-:-/ absolute / inch / decimal}
; #@! TF.CreationDate,2023-09-01T00:23:20+02:00
; #@! TF.GenerationSoftware,Kicad,Pcbnew,6.0.2+dfsg-1
; #@! TF.FileFunction,Plated,1,2,PTH
FMAT,2
INCH
; #@! TA.AperFunction,Plated,PTH,ViaDrill
T1C0.0157
%
G90
G05
T1
X3.9Y-2.66
X3.9Y-2.7
X3.9Y-2.85
X3.9Y-2.89
X3.94Y-2.66
X3.94Y-2.7
X3.94Y-2.85
X3.94Y-2.89
X3.98Y-2.66
X3.98Y-2.7
X3.98Y-2.85
X3.98Y-2.89
X4.172Y-2.6598
X4.172Y-2.6998
X4.172Y-2.8498
X4.172Y-2.8898
X4.212Y-2.6598
X4.212Y-2.6998
X4.212Y-2.8498
X4.212Y-2.8898
X4.252Y-2.6598
X4.252Y-2.6998
X4.252Y-2.8498
X4.252Y-2.8898
T0
M30
