%TF.GenerationSoftware,KiCad,Pcbnew,6.0.2+dfsg-1*%
%TF.CreationDate,2023-09-01T00:23:25+02:00*%
%TF.ProjectId,microUnUn,6d696372-6f55-46e5-956e-2e6b69636164,rev?*%
%TF.SameCoordinates,Original*%
%TF.FileFunction,Legend,Top*%
%TF.FilePolarity,Positive*%
%FSLAX46Y46*%
G04 Gerber Fmt 4.6, Leading zero omitted, Abs format (unit mm)*
G04 Created by KiCad (PCBNEW 6.0.2+dfsg-1) date 2023-09-01 00:23:25*
%MOMM*%
%LPD*%
G01*
G04 APERTURE LIST*
%ADD10C,0.300000*%
%ADD11C,0.120000*%
G04 APERTURE END LIST*
D10*
X109285714Y-71278571D02*
X109285714Y-70278571D01*
X109285714Y-70421428D02*
X109357142Y-70350000D01*
X109500000Y-70278571D01*
X109714285Y-70278571D01*
X109857142Y-70350000D01*
X109928571Y-70492857D01*
X109928571Y-71278571D01*
X109928571Y-70492857D02*
X110000000Y-70350000D01*
X110142857Y-70278571D01*
X110357142Y-70278571D01*
X110500000Y-70350000D01*
X110571428Y-70492857D01*
X110571428Y-71278571D01*
X111285714Y-71278571D02*
X111285714Y-70278571D01*
X111285714Y-69778571D02*
X111214285Y-69850000D01*
X111285714Y-69921428D01*
X111357142Y-69850000D01*
X111285714Y-69778571D01*
X111285714Y-69921428D01*
X112642857Y-71207142D02*
X112500000Y-71278571D01*
X112214285Y-71278571D01*
X112071428Y-71207142D01*
X112000000Y-71135714D01*
X111928571Y-70992857D01*
X111928571Y-70564285D01*
X112000000Y-70421428D01*
X112071428Y-70350000D01*
X112214285Y-70278571D01*
X112500000Y-70278571D01*
X112642857Y-70350000D01*
X113285714Y-71278571D02*
X113285714Y-70278571D01*
X113285714Y-70564285D02*
X113357142Y-70421428D01*
X113428571Y-70350000D01*
X113571428Y-70278571D01*
X113714285Y-70278571D01*
X114428571Y-71278571D02*
X114285714Y-71207142D01*
X114214285Y-71135714D01*
X114142857Y-70992857D01*
X114142857Y-70564285D01*
X114214285Y-70421428D01*
X114285714Y-70350000D01*
X114428571Y-70278571D01*
X114642857Y-70278571D01*
X114785714Y-70350000D01*
X114857142Y-70421428D01*
X114928571Y-70564285D01*
X114928571Y-70992857D01*
X114857142Y-71135714D01*
X114785714Y-71207142D01*
X114642857Y-71278571D01*
X114428571Y-71278571D01*
X115571428Y-69778571D02*
X115571428Y-70992857D01*
X115642857Y-71135714D01*
X115714285Y-71207142D01*
X115857142Y-71278571D01*
X116142857Y-71278571D01*
X116285714Y-71207142D01*
X116357142Y-71135714D01*
X116428571Y-70992857D01*
X116428571Y-69778571D01*
X117142857Y-70278571D02*
X117142857Y-71278571D01*
X117142857Y-70421428D02*
X117214285Y-70350000D01*
X117357142Y-70278571D01*
X117571428Y-70278571D01*
X117714285Y-70350000D01*
X117785714Y-70492857D01*
X117785714Y-71278571D01*
X118500000Y-69778571D02*
X118500000Y-70992857D01*
X118571428Y-71135714D01*
X118642857Y-71207142D01*
X118785714Y-71278571D01*
X119071428Y-71278571D01*
X119214285Y-71207142D01*
X119285714Y-71135714D01*
X119357142Y-70992857D01*
X119357142Y-69778571D01*
X120071428Y-70278571D02*
X120071428Y-71278571D01*
X120071428Y-70421428D02*
X120142857Y-70350000D01*
X120285714Y-70278571D01*
X120500000Y-70278571D01*
X120642857Y-70350000D01*
X120714285Y-70492857D01*
X120714285Y-71278571D01*
X124250000Y-74757142D02*
X124321428Y-74614285D01*
X124321428Y-74400000D01*
X124250000Y-74185714D01*
X124107142Y-74042857D01*
X123964285Y-73971428D01*
X123678571Y-73900000D01*
X123464285Y-73900000D01*
X123178571Y-73971428D01*
X123035714Y-74042857D01*
X122892857Y-74185714D01*
X122821428Y-74400000D01*
X122821428Y-74542857D01*
X122892857Y-74757142D01*
X122964285Y-74828571D01*
X123464285Y-74828571D01*
X123464285Y-74542857D01*
X122821428Y-75471428D02*
X124321428Y-75471428D01*
X122821428Y-76328571D01*
X124321428Y-76328571D01*
X122821428Y-77042857D02*
X124321428Y-77042857D01*
X124321428Y-77400000D01*
X124250000Y-77614285D01*
X124107142Y-77757142D01*
X123964285Y-77828571D01*
X123678571Y-77900000D01*
X123464285Y-77900000D01*
X123178571Y-77828571D01*
X123035714Y-77757142D01*
X122892857Y-77614285D01*
X122821428Y-77400000D01*
X122821428Y-77042857D01*
X123150000Y-63885714D02*
X123150000Y-64600000D01*
X122721428Y-63742857D02*
X124221428Y-64242857D01*
X122721428Y-64742857D01*
X122721428Y-65242857D02*
X124221428Y-65242857D01*
X122721428Y-66100000D01*
X124221428Y-66100000D01*
X124221428Y-66600000D02*
X124221428Y-67457142D01*
X122721428Y-67028571D02*
X124221428Y-67028571D01*
D11*
%TO.C,U1*%
X121815772Y-70749800D02*
G75*
G03*
X121815772Y-70749800I-11260551J0D01*
G01*
%TD*%
M02*
