%TF.GenerationSoftware,KiCad,Pcbnew,6.0.2+dfsg-1*%
%TF.CreationDate,2023-09-01T00:23:24+02:00*%
%TF.ProjectId,microUnUn,6d696372-6f55-46e5-956e-2e6b69636164,rev?*%
%TF.SameCoordinates,Original*%
%TF.FileFunction,Copper,L2,Bot*%
%TF.FilePolarity,Positive*%
%FSLAX46Y46*%
G04 Gerber Fmt 4.6, Leading zero omitted, Abs format (unit mm)*
G04 Created by KiCad (PCBNEW 6.0.2+dfsg-1) date 2023-09-01 00:23:24*
%MOMM*%
%LPD*%
G01*
G04 APERTURE LIST*
G04 Aperture macros list*
%AMRoundRect*
0 Rectangle with rounded corners*
0 $1 Rounding radius*
0 $2 $3 $4 $5 $6 $7 $8 $9 X,Y pos of 4 corners*
0 Add a 4 corners polygon primitive as box body*
4,1,4,$2,$3,$4,$5,$6,$7,$8,$9,$2,$3,0*
0 Add four circle primitives for the rounded corners*
1,1,$1+$1,$2,$3*
1,1,$1+$1,$4,$5*
1,1,$1+$1,$6,$7*
1,1,$1+$1,$8,$9*
0 Add four rect primitives between the rounded corners*
20,1,$1+$1,$2,$3,$4,$5,0*
20,1,$1+$1,$4,$5,$6,$7,0*
20,1,$1+$1,$6,$7,$8,$9,0*
20,1,$1+$1,$8,$9,$2,$3,0*%
G04 Aperture macros list end*
%TA.AperFunction,SMDPad,CuDef*%
%ADD10R,14.500000X2.600000*%
%TD*%
%TA.AperFunction,SMDPad,CuDef*%
%ADD11RoundRect,0.249999X-1.025001X-1.750001X1.025001X-1.750001X1.025001X1.750001X-1.025001X1.750001X0*%
%TD*%
%TA.AperFunction,SMDPad,CuDef*%
%ADD12R,3.600000X1.270000*%
%TD*%
%TA.AperFunction,SMDPad,CuDef*%
%ADD13R,4.200000X1.350000*%
%TD*%
%TA.AperFunction,SMDPad,CuDef*%
%ADD14RoundRect,0.250000X0.650000X-0.412500X0.650000X0.412500X-0.650000X0.412500X-0.650000X-0.412500X0*%
%TD*%
%TA.AperFunction,ViaPad*%
%ADD15C,0.800000*%
%TD*%
%TA.AperFunction,Conductor*%
%ADD16C,2.000000*%
%TD*%
%TA.AperFunction,Conductor*%
%ADD17C,1.250000*%
%TD*%
%TA.AperFunction,Conductor*%
%ADD18C,0.300000*%
%TD*%
%TA.AperFunction,Conductor*%
%ADD19C,1.300000*%
%TD*%
G04 APERTURE END LIST*
D10*
%TO.P,H2,1,1*%
%TO.N,GND*%
X117500000Y-76454000D03*
%TD*%
%TO.P,H1,1,1*%
%TO.N,Net-(J2-Pad1)*%
X117400000Y-65254000D03*
%TD*%
D11*
%TO.P,U1,1,gnd*%
%TO.N,GND*%
X113155221Y-79849800D03*
%TO.P,U1,2,a*%
%TO.N,Net-(C1-Pad1)*%
X107655221Y-79849800D03*
%TO.P,U1,3,x*%
%TO.N,Net-(J2-Pad1)*%
X113155221Y-61749800D03*
%TD*%
D12*
%TO.P,J1,1,In*%
%TO.N,Net-(C1-Pad1)*%
X96100000Y-70500000D03*
D13*
%TO.P,J1,2,Ext*%
%TO.N,GND*%
X96300000Y-73325000D03*
X96300000Y-67675000D03*
%TD*%
D14*
%TO.P,C1,1*%
%TO.N,Net-(C1-Pad1)*%
X103700000Y-70525000D03*
%TO.P,C1,2*%
%TO.N,GND*%
X103700000Y-67400000D03*
%TD*%
D15*
%TO.N,GND*%
X106984000Y-72384000D03*
X106984000Y-68574000D03*
X106984000Y-67558000D03*
X105968000Y-73400000D03*
X105968000Y-68574000D03*
X108000000Y-72384000D03*
X106984000Y-73400000D03*
X105968000Y-67558000D03*
X108000000Y-68574000D03*
X105968000Y-72384000D03*
X108000000Y-67558000D03*
X108000000Y-73400000D03*
X101092000Y-72390000D03*
X101092000Y-67564000D03*
X99060000Y-73406000D03*
X99060000Y-68580000D03*
X100076000Y-68580000D03*
X100076000Y-67564000D03*
X100076000Y-73406000D03*
X100076000Y-72390000D03*
X99060000Y-67564000D03*
X101092000Y-68580000D03*
X101092000Y-73406000D03*
X99060000Y-72390000D03*
%TD*%
D16*
%TO.N,GND*%
X117500000Y-76454000D02*
X113646000Y-76454000D01*
X113155221Y-76944779D02*
X113155221Y-79849800D01*
X113646000Y-76454000D02*
X113155221Y-76944779D01*
D17*
%TO.N,Net-(C1-Pad1)*%
X106037200Y-79849800D02*
X103700000Y-77512600D01*
X107655221Y-79849800D02*
X106037200Y-79849800D01*
D18*
X103675000Y-70500000D02*
X103700000Y-70525000D01*
D17*
X103700000Y-77512600D02*
X103700000Y-70525000D01*
X96100000Y-70500000D02*
X103675000Y-70500000D01*
D19*
%TO.N,Net-(J2-Pad1)*%
X115454000Y-65254000D02*
X112746000Y-65254000D01*
X113155221Y-61749800D02*
X113155221Y-64844779D01*
%TD*%
%TA.AperFunction,Conductor*%
%TO.N,GND*%
G36*
X108638121Y-66708002D02*
G01*
X108684614Y-66761658D01*
X108696000Y-66814000D01*
X108696000Y-71066000D01*
X119880000Y-71066000D01*
X119948121Y-71086002D01*
X119994614Y-71139658D01*
X120006000Y-71192000D01*
X120006000Y-77496024D01*
X119985998Y-77564145D01*
X119932342Y-77610638D01*
X119921443Y-77615013D01*
X119914269Y-77617511D01*
X119841965Y-77642690D01*
X119840599Y-77643158D01*
X119760528Y-77670011D01*
X119756545Y-77672436D01*
X119752144Y-77673969D01*
X119680560Y-77718699D01*
X119679405Y-77719411D01*
X119613251Y-77759697D01*
X119613245Y-77759702D01*
X119607236Y-77763361D01*
X119603889Y-77766609D01*
X119599938Y-77769078D01*
X119592845Y-77776122D01*
X119540064Y-77828535D01*
X119539029Y-77829551D01*
X119483490Y-77883448D01*
X119478435Y-77888354D01*
X119475892Y-77892261D01*
X119472585Y-77895545D01*
X119457378Y-77919507D01*
X119447062Y-77933518D01*
X119050289Y-78400967D01*
X119045399Y-78406401D01*
X118595415Y-78878033D01*
X118594532Y-78878958D01*
X118589335Y-78884097D01*
X118111775Y-79329674D01*
X118106303Y-79334489D01*
X117741805Y-79636951D01*
X117603678Y-79751569D01*
X117597910Y-79756079D01*
X117071917Y-80143254D01*
X117065897Y-80147421D01*
X116518291Y-80503399D01*
X116512061Y-80507195D01*
X116493116Y-80518000D01*
X115944721Y-80830755D01*
X115938258Y-80834196D01*
X115353075Y-81124260D01*
X115346424Y-81127320D01*
X114745383Y-81382906D01*
X114738572Y-81385571D01*
X114123703Y-81605814D01*
X114116746Y-81608080D01*
X113619496Y-81754216D01*
X113490110Y-81792241D01*
X113483029Y-81794100D01*
X112846773Y-81941548D01*
X112839595Y-81942993D01*
X112446577Y-82010299D01*
X112195843Y-82053238D01*
X112188612Y-82054262D01*
X111859196Y-82091142D01*
X111539532Y-82126931D01*
X111532235Y-82127534D01*
X111234646Y-82143434D01*
X110880029Y-82162380D01*
X110872733Y-82162558D01*
X110500228Y-82160793D01*
X110361403Y-82160135D01*
X110293378Y-82139810D01*
X110247140Y-82085935D01*
X110236000Y-82034136D01*
X110236000Y-74930000D01*
X105251500Y-74930000D01*
X105183379Y-74909998D01*
X105136886Y-74856342D01*
X105125500Y-74804000D01*
X105125500Y-71699885D01*
X105145502Y-71631764D01*
X105157589Y-71616766D01*
X105157418Y-71616626D01*
X105161325Y-71611870D01*
X105165684Y-71607511D01*
X105280289Y-71436317D01*
X105359459Y-71246123D01*
X105400179Y-71044173D01*
X105400500Y-71037837D01*
X105400499Y-70012164D01*
X105400179Y-70005827D01*
X105359459Y-69803877D01*
X105280289Y-69613683D01*
X105165684Y-69442489D01*
X105020011Y-69296816D01*
X104848817Y-69182211D01*
X104658623Y-69103041D01*
X104456673Y-69062321D01*
X104452007Y-69062085D01*
X104452002Y-69062084D01*
X104451925Y-69062080D01*
X104451907Y-69062080D01*
X104450337Y-69062000D01*
X104448740Y-69062000D01*
X103696460Y-69062001D01*
X102949664Y-69062001D01*
X102948108Y-69062080D01*
X102948091Y-69062080D01*
X102947997Y-69062085D01*
X102947995Y-69062085D01*
X102943327Y-69062321D01*
X102925205Y-69065975D01*
X102895255Y-69072014D01*
X102870350Y-69074500D01*
X98049075Y-69074500D01*
X98020732Y-69071271D01*
X98008114Y-69068358D01*
X97992589Y-69064774D01*
X97987837Y-69064500D01*
X97945202Y-69064500D01*
X95126000Y-69064501D01*
X95057879Y-69044499D01*
X95011386Y-68990843D01*
X95000000Y-68938501D01*
X95000000Y-67526000D01*
X95020002Y-67457879D01*
X95073658Y-67411386D01*
X95126000Y-67400000D01*
X99189429Y-67400000D01*
X99191586Y-67400018D01*
X99276028Y-67401464D01*
X99282922Y-67400021D01*
X99282927Y-67400021D01*
X99320968Y-67392061D01*
X99332727Y-67390175D01*
X99346431Y-67388638D01*
X99378360Y-67385056D01*
X99406695Y-67375189D01*
X99422323Y-67370852D01*
X99444807Y-67366147D01*
X99444808Y-67366147D01*
X99451702Y-67364704D01*
X99493465Y-67345567D01*
X99504487Y-67341133D01*
X99547856Y-67326031D01*
X99573311Y-67310125D01*
X99587576Y-67302441D01*
X99614865Y-67289936D01*
X99651344Y-67262027D01*
X99661123Y-67255254D01*
X99694088Y-67234655D01*
X99700062Y-67230922D01*
X99721356Y-67209777D01*
X99733569Y-67199119D01*
X99757411Y-67180878D01*
X99786798Y-67145583D01*
X99794842Y-67136802D01*
X99822413Y-67109423D01*
X99822416Y-67109419D01*
X99827415Y-67104455D01*
X99843495Y-67079118D01*
X99853046Y-67066016D01*
X99867745Y-67048361D01*
X99872251Y-67042949D01*
X99893083Y-67002031D01*
X99898983Y-66991682D01*
X99919808Y-66958867D01*
X99923585Y-66952916D01*
X99933653Y-66924641D01*
X99940064Y-66909749D01*
X99950484Y-66889283D01*
X99950484Y-66889282D01*
X99953680Y-66883005D01*
X99962014Y-66850021D01*
X99966889Y-66834849D01*
X99993159Y-66767947D01*
X100036675Y-66711850D01*
X100110441Y-66688000D01*
X108570000Y-66688000D01*
X108638121Y-66708002D01*
G37*
%TD.AperFunction*%
%TA.AperFunction,Conductor*%
G36*
X102216621Y-71945502D02*
G01*
X102263114Y-71999158D01*
X102274500Y-72051500D01*
X102274500Y-74550000D01*
X102254498Y-74618121D01*
X102200842Y-74664614D01*
X102148500Y-74676000D01*
X100008995Y-74676000D01*
X99940874Y-74655998D01*
X99894381Y-74602342D01*
X99890446Y-74592687D01*
X99852679Y-74487803D01*
X99845968Y-74458748D01*
X99841026Y-74413338D01*
X99840264Y-74406334D01*
X99781799Y-74236644D01*
X99687192Y-74084125D01*
X99561145Y-73956357D01*
X99409924Y-73859687D01*
X99403298Y-73857303D01*
X99403296Y-73857302D01*
X99355543Y-73840121D01*
X99241044Y-73798925D01*
X99102368Y-73781925D01*
X95126464Y-73796580D01*
X95058270Y-73776829D01*
X95011580Y-73723345D01*
X95000000Y-73670581D01*
X95000000Y-72061500D01*
X95020002Y-71993379D01*
X95073658Y-71946886D01*
X95126000Y-71935500D01*
X97945915Y-71935499D01*
X97987836Y-71935499D01*
X97992589Y-71935226D01*
X97997785Y-71934026D01*
X97997788Y-71934026D01*
X98020732Y-71928729D01*
X98049075Y-71925500D01*
X102148500Y-71925500D01*
X102216621Y-71945502D01*
G37*
%TD.AperFunction*%
%TD*%
M02*
