%TF.GenerationSoftware,KiCad,Pcbnew,6.0.2+dfsg-1*%
%TF.CreationDate,2023-08-31T23:38:15+02:00*%
%TF.ProjectId,UnUn_BNC,556e556e-5f42-44e4-932e-6b696361645f,rev?*%
%TF.SameCoordinates,Original*%
%TF.FileFunction,Legend,Bot*%
%TF.FilePolarity,Positive*%
%FSLAX46Y46*%
G04 Gerber Fmt 4.6, Leading zero omitted, Abs format (unit mm)*
G04 Created by KiCad (PCBNEW 6.0.2+dfsg-1) date 2023-08-31 23:38:15*
%MOMM*%
%LPD*%
G01*
G04 APERTURE LIST*
%ADD10C,0.300000*%
%ADD11C,0.010000*%
%ADD12C,0.120000*%
G04 APERTURE END LIST*
D10*
X121457142Y-72378571D02*
X121457142Y-70878571D01*
X121100000Y-70878571D01*
X120885714Y-70950000D01*
X120742857Y-71092857D01*
X120671428Y-71235714D01*
X120600000Y-71521428D01*
X120600000Y-71735714D01*
X120671428Y-72021428D01*
X120742857Y-72164285D01*
X120885714Y-72307142D01*
X121100000Y-72378571D01*
X121457142Y-72378571D01*
X119171428Y-70950000D02*
X119314285Y-70878571D01*
X119528571Y-70878571D01*
X119742857Y-70950000D01*
X119885714Y-71092857D01*
X119957142Y-71235714D01*
X120028571Y-71521428D01*
X120028571Y-71735714D01*
X119957142Y-72021428D01*
X119885714Y-72164285D01*
X119742857Y-72307142D01*
X119528571Y-72378571D01*
X119385714Y-72378571D01*
X119171428Y-72307142D01*
X119100000Y-72235714D01*
X119100000Y-71735714D01*
X119385714Y-71735714D01*
X117671428Y-72378571D02*
X118528571Y-72378571D01*
X118100000Y-72378571D02*
X118100000Y-70878571D01*
X118242857Y-71092857D01*
X118385714Y-71235714D01*
X118528571Y-71307142D01*
X116600000Y-70878571D02*
X116600000Y-71950000D01*
X116671428Y-72164285D01*
X116814285Y-72307142D01*
X117028571Y-72378571D01*
X117171428Y-72378571D01*
X115957142Y-71950000D02*
X115242857Y-71950000D01*
X116100000Y-72378571D02*
X115600000Y-70878571D01*
X115100000Y-72378571D01*
X114600000Y-72378571D02*
X114600000Y-70878571D01*
X113742857Y-72378571D01*
X113742857Y-70878571D01*
X126121428Y-75950000D02*
X126192857Y-75878571D01*
X126335714Y-75664285D01*
X126407142Y-75521428D01*
X126478571Y-75307142D01*
X126550000Y-74950000D01*
X126550000Y-74664285D01*
X126478571Y-74307142D01*
X126407142Y-74092857D01*
X126335714Y-73950000D01*
X126192857Y-73735714D01*
X126121428Y-73664285D01*
X124692857Y-75235714D02*
X124764285Y-75307142D01*
X124978571Y-75378571D01*
X125121428Y-75378571D01*
X125335714Y-75307142D01*
X125478571Y-75164285D01*
X125550000Y-75021428D01*
X125621428Y-74735714D01*
X125621428Y-74521428D01*
X125550000Y-74235714D01*
X125478571Y-74092857D01*
X125335714Y-73950000D01*
X125121428Y-73878571D01*
X124978571Y-73878571D01*
X124764285Y-73950000D01*
X124692857Y-74021428D01*
X123192857Y-75235714D02*
X123264285Y-75307142D01*
X123478571Y-75378571D01*
X123621428Y-75378571D01*
X123835714Y-75307142D01*
X123978571Y-75164285D01*
X124050000Y-75021428D01*
X124121428Y-74735714D01*
X124121428Y-74521428D01*
X124050000Y-74235714D01*
X123978571Y-74092857D01*
X123835714Y-73950000D01*
X123621428Y-73878571D01*
X123478571Y-73878571D01*
X123264285Y-73950000D01*
X123192857Y-74021428D01*
X120907142Y-74592857D02*
X120692857Y-74664285D01*
X120621428Y-74735714D01*
X120550000Y-74878571D01*
X120550000Y-75092857D01*
X120621428Y-75235714D01*
X120692857Y-75307142D01*
X120835714Y-75378571D01*
X121407142Y-75378571D01*
X121407142Y-73878571D01*
X120907142Y-73878571D01*
X120764285Y-73950000D01*
X120692857Y-74021428D01*
X120621428Y-74164285D01*
X120621428Y-74307142D01*
X120692857Y-74450000D01*
X120764285Y-74521428D01*
X120907142Y-74592857D01*
X121407142Y-74592857D01*
X119621428Y-74664285D02*
X119621428Y-75378571D01*
X120121428Y-73878571D02*
X119621428Y-74664285D01*
X119121428Y-73878571D01*
X118621428Y-74807142D02*
X117478571Y-74807142D01*
X116835714Y-75307142D02*
X116621428Y-75378571D01*
X116264285Y-75378571D01*
X116121428Y-75307142D01*
X116050000Y-75235714D01*
X115978571Y-75092857D01*
X115978571Y-74950000D01*
X116050000Y-74807142D01*
X116121428Y-74735714D01*
X116264285Y-74664285D01*
X116550000Y-74592857D01*
X116692857Y-74521428D01*
X116764285Y-74450000D01*
X116835714Y-74307142D01*
X116835714Y-74164285D01*
X116764285Y-74021428D01*
X116692857Y-73950000D01*
X116550000Y-73878571D01*
X116192857Y-73878571D01*
X115978571Y-73950000D01*
X115407142Y-74950000D02*
X114692857Y-74950000D01*
X115550000Y-75378571D02*
X115050000Y-73878571D01*
X114550000Y-75378571D01*
X112264285Y-74378571D02*
X112264285Y-75378571D01*
X112621428Y-73807142D02*
X112978571Y-74878571D01*
X112050000Y-74878571D01*
X111478571Y-75235714D02*
X111407142Y-75307142D01*
X111478571Y-75378571D01*
X111550000Y-75307142D01*
X111478571Y-75235714D01*
X111478571Y-75378571D01*
X110478571Y-73878571D02*
X110335714Y-73878571D01*
X110192857Y-73950000D01*
X110121428Y-74021428D01*
X110050000Y-74164285D01*
X109978571Y-74450000D01*
X109978571Y-74807142D01*
X110050000Y-75092857D01*
X110121428Y-75235714D01*
X110192857Y-75307142D01*
X110335714Y-75378571D01*
X110478571Y-75378571D01*
X110621428Y-75307142D01*
X110692857Y-75235714D01*
X110764285Y-75092857D01*
X110835714Y-74807142D01*
X110835714Y-74450000D01*
X110764285Y-74164285D01*
X110692857Y-74021428D01*
X110621428Y-73950000D01*
X110478571Y-73878571D01*
X109478571Y-75950000D02*
X109407142Y-75878571D01*
X109264285Y-75664285D01*
X109192857Y-75521428D01*
X109121428Y-75307142D01*
X109050000Y-74950000D01*
X109050000Y-74664285D01*
X109121428Y-74307142D01*
X109192857Y-74092857D01*
X109264285Y-73950000D01*
X109407142Y-73735714D01*
X109478571Y-73664285D01*
D11*
%TO.C,REF\u002A\u002A*%
X117044186Y-55168931D02*
X116960365Y-55613555D01*
X116960365Y-55613555D02*
X116651080Y-55741053D01*
X116651080Y-55741053D02*
X116341794Y-55868551D01*
X116341794Y-55868551D02*
X115970754Y-55616246D01*
X115970754Y-55616246D02*
X115866843Y-55545996D01*
X115866843Y-55545996D02*
X115772913Y-55483272D01*
X115772913Y-55483272D02*
X115693348Y-55430938D01*
X115693348Y-55430938D02*
X115632530Y-55391857D01*
X115632530Y-55391857D02*
X115594843Y-55368893D01*
X115594843Y-55368893D02*
X115584579Y-55363942D01*
X115584579Y-55363942D02*
X115566090Y-55376676D01*
X115566090Y-55376676D02*
X115526580Y-55411882D01*
X115526580Y-55411882D02*
X115470478Y-55465062D01*
X115470478Y-55465062D02*
X115402213Y-55531718D01*
X115402213Y-55531718D02*
X115326214Y-55607354D01*
X115326214Y-55607354D02*
X115246908Y-55687472D01*
X115246908Y-55687472D02*
X115168725Y-55767574D01*
X115168725Y-55767574D02*
X115096093Y-55843164D01*
X115096093Y-55843164D02*
X115033441Y-55909745D01*
X115033441Y-55909745D02*
X114985197Y-55962818D01*
X114985197Y-55962818D02*
X114955790Y-55997887D01*
X114955790Y-55997887D02*
X114948759Y-56009623D01*
X114948759Y-56009623D02*
X114958877Y-56031260D01*
X114958877Y-56031260D02*
X114987241Y-56078662D01*
X114987241Y-56078662D02*
X115030871Y-56147193D01*
X115030871Y-56147193D02*
X115086782Y-56232215D01*
X115086782Y-56232215D02*
X115151994Y-56329093D01*
X115151994Y-56329093D02*
X115189781Y-56384350D01*
X115189781Y-56384350D02*
X115258657Y-56485248D01*
X115258657Y-56485248D02*
X115319860Y-56576299D01*
X115319860Y-56576299D02*
X115370422Y-56652970D01*
X115370422Y-56652970D02*
X115407372Y-56710728D01*
X115407372Y-56710728D02*
X115427742Y-56745043D01*
X115427742Y-56745043D02*
X115430803Y-56752254D01*
X115430803Y-56752254D02*
X115423864Y-56772748D01*
X115423864Y-56772748D02*
X115404949Y-56820513D01*
X115404949Y-56820513D02*
X115376913Y-56888832D01*
X115376913Y-56888832D02*
X115342609Y-56970989D01*
X115342609Y-56970989D02*
X115304891Y-57060270D01*
X115304891Y-57060270D02*
X115266613Y-57149958D01*
X115266613Y-57149958D02*
X115230630Y-57233338D01*
X115230630Y-57233338D02*
X115199794Y-57303694D01*
X115199794Y-57303694D02*
X115176961Y-57354310D01*
X115176961Y-57354310D02*
X115164983Y-57378471D01*
X115164983Y-57378471D02*
X115164276Y-57379422D01*
X115164276Y-57379422D02*
X115145469Y-57384036D01*
X115145469Y-57384036D02*
X115095382Y-57394328D01*
X115095382Y-57394328D02*
X115019207Y-57409287D01*
X115019207Y-57409287D02*
X114922135Y-57427901D01*
X114922135Y-57427901D02*
X114809357Y-57449159D01*
X114809357Y-57449159D02*
X114743558Y-57461418D01*
X114743558Y-57461418D02*
X114623050Y-57484362D01*
X114623050Y-57484362D02*
X114514203Y-57506195D01*
X114514203Y-57506195D02*
X114422524Y-57525722D01*
X114422524Y-57525722D02*
X114353519Y-57541748D01*
X114353519Y-57541748D02*
X114312696Y-57553079D01*
X114312696Y-57553079D02*
X114304489Y-57556674D01*
X114304489Y-57556674D02*
X114296452Y-57581006D01*
X114296452Y-57581006D02*
X114289967Y-57635959D01*
X114289967Y-57635959D02*
X114285030Y-57715108D01*
X114285030Y-57715108D02*
X114281636Y-57812026D01*
X114281636Y-57812026D02*
X114279782Y-57920287D01*
X114279782Y-57920287D02*
X114279462Y-58033465D01*
X114279462Y-58033465D02*
X114280673Y-58145135D01*
X114280673Y-58145135D02*
X114283410Y-58248868D01*
X114283410Y-58248868D02*
X114287669Y-58338241D01*
X114287669Y-58338241D02*
X114293445Y-58406826D01*
X114293445Y-58406826D02*
X114300733Y-58448197D01*
X114300733Y-58448197D02*
X114305105Y-58456810D01*
X114305105Y-58456810D02*
X114331236Y-58467133D01*
X114331236Y-58467133D02*
X114386607Y-58481892D01*
X114386607Y-58481892D02*
X114463893Y-58499352D01*
X114463893Y-58499352D02*
X114555770Y-58517780D01*
X114555770Y-58517780D02*
X114587842Y-58523741D01*
X114587842Y-58523741D02*
X114742476Y-58552066D01*
X114742476Y-58552066D02*
X114864625Y-58574876D01*
X114864625Y-58574876D02*
X114958327Y-58593080D01*
X114958327Y-58593080D02*
X115027616Y-58607583D01*
X115027616Y-58607583D02*
X115076529Y-58619292D01*
X115076529Y-58619292D02*
X115109103Y-58629115D01*
X115109103Y-58629115D02*
X115129372Y-58637956D01*
X115129372Y-58637956D02*
X115141374Y-58646724D01*
X115141374Y-58646724D02*
X115143053Y-58648457D01*
X115143053Y-58648457D02*
X115159816Y-58676371D01*
X115159816Y-58676371D02*
X115185386Y-58730695D01*
X115185386Y-58730695D02*
X115217212Y-58804777D01*
X115217212Y-58804777D02*
X115252740Y-58891965D01*
X115252740Y-58891965D02*
X115289417Y-58985608D01*
X115289417Y-58985608D02*
X115324689Y-59079052D01*
X115324689Y-59079052D02*
X115356004Y-59165647D01*
X115356004Y-59165647D02*
X115380807Y-59238740D01*
X115380807Y-59238740D02*
X115396546Y-59291678D01*
X115396546Y-59291678D02*
X115400668Y-59317811D01*
X115400668Y-59317811D02*
X115400324Y-59318726D01*
X115400324Y-59318726D02*
X115386359Y-59340086D01*
X115386359Y-59340086D02*
X115354678Y-59387084D01*
X115354678Y-59387084D02*
X115308609Y-59454827D01*
X115308609Y-59454827D02*
X115251482Y-59538423D01*
X115251482Y-59538423D02*
X115186627Y-59632982D01*
X115186627Y-59632982D02*
X115168157Y-59659854D01*
X115168157Y-59659854D02*
X115102301Y-59757275D01*
X115102301Y-59757275D02*
X115044350Y-59846163D01*
X115044350Y-59846163D02*
X114997462Y-59921412D01*
X114997462Y-59921412D02*
X114964793Y-59977920D01*
X114964793Y-59977920D02*
X114949500Y-60010581D01*
X114949500Y-60010581D02*
X114948759Y-60014593D01*
X114948759Y-60014593D02*
X114961608Y-60035684D01*
X114961608Y-60035684D02*
X114997112Y-60077464D01*
X114997112Y-60077464D02*
X115050707Y-60135445D01*
X115050707Y-60135445D02*
X115117829Y-60205135D01*
X115117829Y-60205135D02*
X115193913Y-60282045D01*
X115193913Y-60282045D02*
X115274396Y-60361683D01*
X115274396Y-60361683D02*
X115354713Y-60439561D01*
X115354713Y-60439561D02*
X115430301Y-60511186D01*
X115430301Y-60511186D02*
X115496595Y-60572070D01*
X115496595Y-60572070D02*
X115549031Y-60617721D01*
X115549031Y-60617721D02*
X115583045Y-60643650D01*
X115583045Y-60643650D02*
X115592455Y-60647883D01*
X115592455Y-60647883D02*
X115614357Y-60637912D01*
X115614357Y-60637912D02*
X115659200Y-60611020D01*
X115659200Y-60611020D02*
X115719679Y-60571736D01*
X115719679Y-60571736D02*
X115766211Y-60540117D01*
X115766211Y-60540117D02*
X115850525Y-60482098D01*
X115850525Y-60482098D02*
X115950374Y-60413784D01*
X115950374Y-60413784D02*
X116050527Y-60345579D01*
X116050527Y-60345579D02*
X116104373Y-60309075D01*
X116104373Y-60309075D02*
X116286629Y-60185800D01*
X116286629Y-60185800D02*
X116439619Y-60268520D01*
X116439619Y-60268520D02*
X116509318Y-60304759D01*
X116509318Y-60304759D02*
X116568586Y-60332926D01*
X116568586Y-60332926D02*
X116608689Y-60348991D01*
X116608689Y-60348991D02*
X116618897Y-60351226D01*
X116618897Y-60351226D02*
X116631171Y-60334722D01*
X116631171Y-60334722D02*
X116655387Y-60288082D01*
X116655387Y-60288082D02*
X116689737Y-60215609D01*
X116689737Y-60215609D02*
X116732412Y-60121606D01*
X116732412Y-60121606D02*
X116781606Y-60010374D01*
X116781606Y-60010374D02*
X116835510Y-59886215D01*
X116835510Y-59886215D02*
X116892316Y-59753432D01*
X116892316Y-59753432D02*
X116950218Y-59616327D01*
X116950218Y-59616327D02*
X117007407Y-59479202D01*
X117007407Y-59479202D02*
X117062076Y-59346358D01*
X117062076Y-59346358D02*
X117112416Y-59222098D01*
X117112416Y-59222098D02*
X117156620Y-59110725D01*
X117156620Y-59110725D02*
X117192881Y-59016539D01*
X117192881Y-59016539D02*
X117219391Y-58943844D01*
X117219391Y-58943844D02*
X117234342Y-58896941D01*
X117234342Y-58896941D02*
X117236746Y-58880833D01*
X117236746Y-58880833D02*
X117217689Y-58860286D01*
X117217689Y-58860286D02*
X117175964Y-58826933D01*
X117175964Y-58826933D02*
X117120294Y-58787702D01*
X117120294Y-58787702D02*
X117115622Y-58784599D01*
X117115622Y-58784599D02*
X116971736Y-58669423D01*
X116971736Y-58669423D02*
X116855717Y-58535053D01*
X116855717Y-58535053D02*
X116768570Y-58385784D01*
X116768570Y-58385784D02*
X116711301Y-58225913D01*
X116711301Y-58225913D02*
X116684914Y-58059737D01*
X116684914Y-58059737D02*
X116690415Y-57891552D01*
X116690415Y-57891552D02*
X116728810Y-57725655D01*
X116728810Y-57725655D02*
X116801105Y-57566342D01*
X116801105Y-57566342D02*
X116822374Y-57531487D01*
X116822374Y-57531487D02*
X116933004Y-57390737D01*
X116933004Y-57390737D02*
X117063698Y-57277714D01*
X117063698Y-57277714D02*
X117209936Y-57193003D01*
X117209936Y-57193003D02*
X117367192Y-57137194D01*
X117367192Y-57137194D02*
X117530943Y-57110874D01*
X117530943Y-57110874D02*
X117696667Y-57114630D01*
X117696667Y-57114630D02*
X117859838Y-57149050D01*
X117859838Y-57149050D02*
X118015935Y-57214723D01*
X118015935Y-57214723D02*
X118160433Y-57312235D01*
X118160433Y-57312235D02*
X118205131Y-57351813D01*
X118205131Y-57351813D02*
X118318888Y-57475703D01*
X118318888Y-57475703D02*
X118401782Y-57606124D01*
X118401782Y-57606124D02*
X118458644Y-57752315D01*
X118458644Y-57752315D02*
X118490313Y-57897088D01*
X118490313Y-57897088D02*
X118498131Y-58059860D01*
X118498131Y-58059860D02*
X118472062Y-58223440D01*
X118472062Y-58223440D02*
X118414755Y-58382298D01*
X118414755Y-58382298D02*
X118328856Y-58530906D01*
X118328856Y-58530906D02*
X118217014Y-58663735D01*
X118217014Y-58663735D02*
X118081877Y-58775256D01*
X118081877Y-58775256D02*
X118064117Y-58787011D01*
X118064117Y-58787011D02*
X118007850Y-58825508D01*
X118007850Y-58825508D02*
X117965077Y-58858863D01*
X117965077Y-58858863D02*
X117944628Y-58880160D01*
X117944628Y-58880160D02*
X117944331Y-58880833D01*
X117944331Y-58880833D02*
X117948721Y-58903871D01*
X117948721Y-58903871D02*
X117966124Y-58956157D01*
X117966124Y-58956157D02*
X117994732Y-59033390D01*
X117994732Y-59033390D02*
X118032735Y-59131268D01*
X118032735Y-59131268D02*
X118078326Y-59245491D01*
X118078326Y-59245491D02*
X118129697Y-59371758D01*
X118129697Y-59371758D02*
X118185038Y-59505767D01*
X118185038Y-59505767D02*
X118242542Y-59643218D01*
X118242542Y-59643218D02*
X118300399Y-59779808D01*
X118300399Y-59779808D02*
X118356802Y-59911237D01*
X118356802Y-59911237D02*
X118409942Y-60033205D01*
X118409942Y-60033205D02*
X118458010Y-60141409D01*
X118458010Y-60141409D02*
X118499199Y-60231549D01*
X118499199Y-60231549D02*
X118531699Y-60299323D01*
X118531699Y-60299323D02*
X118553703Y-60340430D01*
X118553703Y-60340430D02*
X118562564Y-60351226D01*
X118562564Y-60351226D02*
X118589640Y-60342819D01*
X118589640Y-60342819D02*
X118640303Y-60320272D01*
X118640303Y-60320272D02*
X118705817Y-60287613D01*
X118705817Y-60287613D02*
X118741841Y-60268520D01*
X118741841Y-60268520D02*
X118894832Y-60185800D01*
X118894832Y-60185800D02*
X119077088Y-60309075D01*
X119077088Y-60309075D02*
X119170125Y-60372228D01*
X119170125Y-60372228D02*
X119271985Y-60441727D01*
X119271985Y-60441727D02*
X119367438Y-60507165D01*
X119367438Y-60507165D02*
X119415250Y-60540117D01*
X119415250Y-60540117D02*
X119482495Y-60585273D01*
X119482495Y-60585273D02*
X119539436Y-60621057D01*
X119539436Y-60621057D02*
X119578646Y-60642938D01*
X119578646Y-60642938D02*
X119591381Y-60647563D01*
X119591381Y-60647563D02*
X119609917Y-60635085D01*
X119609917Y-60635085D02*
X119650941Y-60600252D01*
X119650941Y-60600252D02*
X119710475Y-60546678D01*
X119710475Y-60546678D02*
X119784542Y-60477983D01*
X119784542Y-60477983D02*
X119869165Y-60397781D01*
X119869165Y-60397781D02*
X119922685Y-60346286D01*
X119922685Y-60346286D02*
X120016319Y-60254286D01*
X120016319Y-60254286D02*
X120097241Y-60171999D01*
X120097241Y-60171999D02*
X120162177Y-60102945D01*
X120162177Y-60102945D02*
X120207858Y-60050644D01*
X120207858Y-60050644D02*
X120231011Y-60018616D01*
X120231011Y-60018616D02*
X120233232Y-60012116D01*
X120233232Y-60012116D02*
X120222924Y-59987394D01*
X120222924Y-59987394D02*
X120194439Y-59937405D01*
X120194439Y-59937405D02*
X120150937Y-59867212D01*
X120150937Y-59867212D02*
X120095577Y-59781875D01*
X120095577Y-59781875D02*
X120031520Y-59686456D01*
X120031520Y-59686456D02*
X120013303Y-59659854D01*
X120013303Y-59659854D02*
X119946927Y-59563167D01*
X119946927Y-59563167D02*
X119887378Y-59476117D01*
X119887378Y-59476117D02*
X119837984Y-59403595D01*
X119837984Y-59403595D02*
X119802075Y-59350493D01*
X119802075Y-59350493D02*
X119782981Y-59321703D01*
X119782981Y-59321703D02*
X119781136Y-59318726D01*
X119781136Y-59318726D02*
X119783895Y-59295782D01*
X119783895Y-59295782D02*
X119798538Y-59245336D01*
X119798538Y-59245336D02*
X119822513Y-59174041D01*
X119822513Y-59174041D02*
X119853266Y-59088547D01*
X119853266Y-59088547D02*
X119888244Y-58995507D01*
X119888244Y-58995507D02*
X119924893Y-58901574D01*
X119924893Y-58901574D02*
X119960661Y-58813399D01*
X119960661Y-58813399D02*
X119992994Y-58737634D01*
X119992994Y-58737634D02*
X120019338Y-58680931D01*
X120019338Y-58680931D02*
X120037142Y-58649943D01*
X120037142Y-58649943D02*
X120038407Y-58648457D01*
X120038407Y-58648457D02*
X120049294Y-58639601D01*
X120049294Y-58639601D02*
X120067682Y-58630843D01*
X120067682Y-58630843D02*
X120097606Y-58621277D01*
X120097606Y-58621277D02*
X120143103Y-58609996D01*
X120143103Y-58609996D02*
X120208209Y-58596093D01*
X120208209Y-58596093D02*
X120296961Y-58578663D01*
X120296961Y-58578663D02*
X120413393Y-58556798D01*
X120413393Y-58556798D02*
X120561542Y-58529591D01*
X120561542Y-58529591D02*
X120593618Y-58523741D01*
X120593618Y-58523741D02*
X120688686Y-58505374D01*
X120688686Y-58505374D02*
X120771565Y-58487405D01*
X120771565Y-58487405D02*
X120834930Y-58471569D01*
X120834930Y-58471569D02*
X120871458Y-58459600D01*
X120871458Y-58459600D02*
X120876356Y-58456810D01*
X120876356Y-58456810D02*
X120884427Y-58432072D01*
X120884427Y-58432072D02*
X120890987Y-58376790D01*
X120890987Y-58376790D02*
X120896033Y-58297389D01*
X120896033Y-58297389D02*
X120899559Y-58200296D01*
X120899559Y-58200296D02*
X120901561Y-58091938D01*
X120901561Y-58091938D02*
X120902036Y-57978740D01*
X120902036Y-57978740D02*
X120900977Y-57867128D01*
X120900977Y-57867128D02*
X120898382Y-57763529D01*
X120898382Y-57763529D02*
X120894246Y-57674368D01*
X120894246Y-57674368D02*
X120888563Y-57606072D01*
X120888563Y-57606072D02*
X120881331Y-57565066D01*
X120881331Y-57565066D02*
X120876971Y-57556674D01*
X120876971Y-57556674D02*
X120852698Y-57548208D01*
X120852698Y-57548208D02*
X120797426Y-57534435D01*
X120797426Y-57534435D02*
X120716662Y-57516550D01*
X120716662Y-57516550D02*
X120615912Y-57495748D01*
X120615912Y-57495748D02*
X120500683Y-57473223D01*
X120500683Y-57473223D02*
X120437902Y-57461418D01*
X120437902Y-57461418D02*
X120318787Y-57439151D01*
X120318787Y-57439151D02*
X120212565Y-57418979D01*
X120212565Y-57418979D02*
X120124427Y-57401915D01*
X120124427Y-57401915D02*
X120059566Y-57388969D01*
X120059566Y-57388969D02*
X120023174Y-57381155D01*
X120023174Y-57381155D02*
X120017184Y-57379422D01*
X120017184Y-57379422D02*
X120007061Y-57359890D01*
X120007061Y-57359890D02*
X119985662Y-57312843D01*
X119985662Y-57312843D02*
X119955839Y-57245003D01*
X119955839Y-57245003D02*
X119920445Y-57163091D01*
X119920445Y-57163091D02*
X119882332Y-57073828D01*
X119882332Y-57073828D02*
X119844353Y-56983935D01*
X119844353Y-56983935D02*
X119809360Y-56900135D01*
X119809360Y-56900135D02*
X119780206Y-56829147D01*
X119780206Y-56829147D02*
X119759743Y-56777694D01*
X119759743Y-56777694D02*
X119750823Y-56752497D01*
X119750823Y-56752497D02*
X119750657Y-56751396D01*
X119750657Y-56751396D02*
X119760769Y-56731519D01*
X119760769Y-56731519D02*
X119789117Y-56685777D01*
X119789117Y-56685777D02*
X119832723Y-56618717D01*
X119832723Y-56618717D02*
X119888606Y-56534884D01*
X119888606Y-56534884D02*
X119953787Y-56438826D01*
X119953787Y-56438826D02*
X119991679Y-56383650D01*
X119991679Y-56383650D02*
X120060725Y-56282481D01*
X120060725Y-56282481D02*
X120122050Y-56190630D01*
X120122050Y-56190630D02*
X120172663Y-56112744D01*
X120172663Y-56112744D02*
X120209571Y-56053469D01*
X120209571Y-56053469D02*
X120229782Y-56017451D01*
X120229782Y-56017451D02*
X120232701Y-56009377D01*
X120232701Y-56009377D02*
X120220153Y-55990584D01*
X120220153Y-55990584D02*
X120185463Y-55950457D01*
X120185463Y-55950457D02*
X120133063Y-55893493D01*
X120133063Y-55893493D02*
X120067384Y-55824185D01*
X120067384Y-55824185D02*
X119992856Y-55747031D01*
X119992856Y-55747031D02*
X119913913Y-55666525D01*
X119913913Y-55666525D02*
X119834983Y-55587163D01*
X119834983Y-55587163D02*
X119760500Y-55513440D01*
X119760500Y-55513440D02*
X119694894Y-55449852D01*
X119694894Y-55449852D02*
X119642596Y-55400894D01*
X119642596Y-55400894D02*
X119608039Y-55371061D01*
X119608039Y-55371061D02*
X119596478Y-55363942D01*
X119596478Y-55363942D02*
X119577654Y-55373953D01*
X119577654Y-55373953D02*
X119532631Y-55402078D01*
X119532631Y-55402078D02*
X119465787Y-55445454D01*
X119465787Y-55445454D02*
X119381499Y-55501218D01*
X119381499Y-55501218D02*
X119284144Y-55566506D01*
X119284144Y-55566506D02*
X119210707Y-55616246D01*
X119210707Y-55616246D02*
X118839667Y-55868551D01*
X118839667Y-55868551D02*
X118221095Y-55613555D01*
X118221095Y-55613555D02*
X118137275Y-55168931D01*
X118137275Y-55168931D02*
X118053454Y-54724307D01*
X118053454Y-54724307D02*
X117128006Y-54724307D01*
X117128006Y-54724307D02*
X117044186Y-55168931D01*
X117044186Y-55168931D02*
X117044186Y-55168931D01*
G36*
X118137275Y-55168931D02*
G01*
X118221095Y-55613555D01*
X118839667Y-55868551D01*
X119210707Y-55616246D01*
X119284144Y-55566506D01*
X119381499Y-55501218D01*
X119465787Y-55445454D01*
X119532631Y-55402078D01*
X119577654Y-55373953D01*
X119596478Y-55363942D01*
X119608039Y-55371061D01*
X119642596Y-55400894D01*
X119694894Y-55449852D01*
X119760500Y-55513440D01*
X119834983Y-55587163D01*
X119913913Y-55666525D01*
X119992856Y-55747031D01*
X120067384Y-55824185D01*
X120133063Y-55893493D01*
X120185463Y-55950457D01*
X120220153Y-55990584D01*
X120232701Y-56009377D01*
X120229782Y-56017451D01*
X120209571Y-56053469D01*
X120172663Y-56112744D01*
X120122050Y-56190630D01*
X120060725Y-56282481D01*
X119991679Y-56383650D01*
X119953787Y-56438826D01*
X119888606Y-56534884D01*
X119832723Y-56618717D01*
X119789117Y-56685777D01*
X119760769Y-56731519D01*
X119750657Y-56751396D01*
X119750823Y-56752497D01*
X119759743Y-56777694D01*
X119780206Y-56829147D01*
X119809360Y-56900135D01*
X119844353Y-56983935D01*
X119882332Y-57073828D01*
X119920445Y-57163091D01*
X119955839Y-57245003D01*
X119985662Y-57312843D01*
X120007061Y-57359890D01*
X120017184Y-57379422D01*
X120023174Y-57381155D01*
X120059566Y-57388969D01*
X120124427Y-57401915D01*
X120212565Y-57418979D01*
X120318787Y-57439151D01*
X120437902Y-57461418D01*
X120500683Y-57473223D01*
X120615912Y-57495748D01*
X120716662Y-57516550D01*
X120797426Y-57534435D01*
X120852698Y-57548208D01*
X120876971Y-57556674D01*
X120881331Y-57565066D01*
X120888563Y-57606072D01*
X120894246Y-57674368D01*
X120898382Y-57763529D01*
X120900977Y-57867128D01*
X120902036Y-57978740D01*
X120901561Y-58091938D01*
X120899559Y-58200296D01*
X120896033Y-58297389D01*
X120890987Y-58376790D01*
X120884427Y-58432072D01*
X120876356Y-58456810D01*
X120871458Y-58459600D01*
X120834930Y-58471569D01*
X120771565Y-58487405D01*
X120688686Y-58505374D01*
X120593618Y-58523741D01*
X120561542Y-58529591D01*
X120413393Y-58556798D01*
X120296961Y-58578663D01*
X120208209Y-58596093D01*
X120143103Y-58609996D01*
X120097606Y-58621277D01*
X120067682Y-58630843D01*
X120049294Y-58639601D01*
X120038407Y-58648457D01*
X120037142Y-58649943D01*
X120019338Y-58680931D01*
X119992994Y-58737634D01*
X119960661Y-58813399D01*
X119924893Y-58901574D01*
X119888244Y-58995507D01*
X119853266Y-59088547D01*
X119822513Y-59174041D01*
X119798538Y-59245336D01*
X119783895Y-59295782D01*
X119781136Y-59318726D01*
X119782981Y-59321703D01*
X119802075Y-59350493D01*
X119837984Y-59403595D01*
X119887378Y-59476117D01*
X119946927Y-59563167D01*
X120013303Y-59659854D01*
X120031520Y-59686456D01*
X120095577Y-59781875D01*
X120150937Y-59867212D01*
X120194439Y-59937405D01*
X120222924Y-59987394D01*
X120233232Y-60012116D01*
X120231011Y-60018616D01*
X120207858Y-60050644D01*
X120162177Y-60102945D01*
X120097241Y-60171999D01*
X120016319Y-60254286D01*
X119922685Y-60346286D01*
X119869165Y-60397781D01*
X119784542Y-60477983D01*
X119710475Y-60546678D01*
X119650941Y-60600252D01*
X119609917Y-60635085D01*
X119591381Y-60647563D01*
X119578646Y-60642938D01*
X119539436Y-60621057D01*
X119482495Y-60585273D01*
X119415250Y-60540117D01*
X119367438Y-60507165D01*
X119271985Y-60441727D01*
X119170125Y-60372228D01*
X119077088Y-60309075D01*
X118894832Y-60185800D01*
X118741841Y-60268520D01*
X118705817Y-60287613D01*
X118640303Y-60320272D01*
X118589640Y-60342819D01*
X118562564Y-60351226D01*
X118553703Y-60340430D01*
X118531699Y-60299323D01*
X118499199Y-60231549D01*
X118458010Y-60141409D01*
X118409942Y-60033205D01*
X118356802Y-59911237D01*
X118300399Y-59779808D01*
X118242542Y-59643218D01*
X118185038Y-59505767D01*
X118129697Y-59371758D01*
X118078326Y-59245491D01*
X118032735Y-59131268D01*
X117994732Y-59033390D01*
X117966124Y-58956157D01*
X117948721Y-58903871D01*
X117944331Y-58880833D01*
X117944628Y-58880160D01*
X117965077Y-58858863D01*
X118007850Y-58825508D01*
X118064117Y-58787011D01*
X118081877Y-58775256D01*
X118217014Y-58663735D01*
X118328856Y-58530906D01*
X118414755Y-58382298D01*
X118472062Y-58223440D01*
X118498131Y-58059860D01*
X118490313Y-57897088D01*
X118458644Y-57752315D01*
X118401782Y-57606124D01*
X118318888Y-57475703D01*
X118205131Y-57351813D01*
X118160433Y-57312235D01*
X118015935Y-57214723D01*
X117859838Y-57149050D01*
X117696667Y-57114630D01*
X117530943Y-57110874D01*
X117367192Y-57137194D01*
X117209936Y-57193003D01*
X117063698Y-57277714D01*
X116933004Y-57390737D01*
X116822374Y-57531487D01*
X116801105Y-57566342D01*
X116728810Y-57725655D01*
X116690415Y-57891552D01*
X116684914Y-58059737D01*
X116711301Y-58225913D01*
X116768570Y-58385784D01*
X116855717Y-58535053D01*
X116971736Y-58669423D01*
X117115622Y-58784599D01*
X117120294Y-58787702D01*
X117175964Y-58826933D01*
X117217689Y-58860286D01*
X117236746Y-58880833D01*
X117234342Y-58896941D01*
X117219391Y-58943844D01*
X117192881Y-59016539D01*
X117156620Y-59110725D01*
X117112416Y-59222098D01*
X117062076Y-59346358D01*
X117007407Y-59479202D01*
X116950218Y-59616327D01*
X116892316Y-59753432D01*
X116835510Y-59886215D01*
X116781606Y-60010374D01*
X116732412Y-60121606D01*
X116689737Y-60215609D01*
X116655387Y-60288082D01*
X116631171Y-60334722D01*
X116618897Y-60351226D01*
X116608689Y-60348991D01*
X116568586Y-60332926D01*
X116509318Y-60304759D01*
X116439619Y-60268520D01*
X116286629Y-60185800D01*
X116104373Y-60309075D01*
X116050527Y-60345579D01*
X115950374Y-60413784D01*
X115850525Y-60482098D01*
X115766211Y-60540117D01*
X115719679Y-60571736D01*
X115659200Y-60611020D01*
X115614357Y-60637912D01*
X115592455Y-60647883D01*
X115583045Y-60643650D01*
X115549031Y-60617721D01*
X115496595Y-60572070D01*
X115430301Y-60511186D01*
X115354713Y-60439561D01*
X115274396Y-60361683D01*
X115193913Y-60282045D01*
X115117829Y-60205135D01*
X115050707Y-60135445D01*
X114997112Y-60077464D01*
X114961608Y-60035684D01*
X114948759Y-60014593D01*
X114949500Y-60010581D01*
X114964793Y-59977920D01*
X114997462Y-59921412D01*
X115044350Y-59846163D01*
X115102301Y-59757275D01*
X115168157Y-59659854D01*
X115186627Y-59632982D01*
X115251482Y-59538423D01*
X115308609Y-59454827D01*
X115354678Y-59387084D01*
X115386359Y-59340086D01*
X115400324Y-59318726D01*
X115400668Y-59317811D01*
X115396546Y-59291678D01*
X115380807Y-59238740D01*
X115356004Y-59165647D01*
X115324689Y-59079052D01*
X115289417Y-58985608D01*
X115252740Y-58891965D01*
X115217212Y-58804777D01*
X115185386Y-58730695D01*
X115159816Y-58676371D01*
X115143053Y-58648457D01*
X115141374Y-58646724D01*
X115129372Y-58637956D01*
X115109103Y-58629115D01*
X115076529Y-58619292D01*
X115027616Y-58607583D01*
X114958327Y-58593080D01*
X114864625Y-58574876D01*
X114742476Y-58552066D01*
X114587842Y-58523741D01*
X114555770Y-58517780D01*
X114463893Y-58499352D01*
X114386607Y-58481892D01*
X114331236Y-58467133D01*
X114305105Y-58456810D01*
X114300733Y-58448197D01*
X114293445Y-58406826D01*
X114287669Y-58338241D01*
X114283410Y-58248868D01*
X114280673Y-58145135D01*
X114279462Y-58033465D01*
X114279782Y-57920287D01*
X114281636Y-57812026D01*
X114285030Y-57715108D01*
X114289967Y-57635959D01*
X114296452Y-57581006D01*
X114304489Y-57556674D01*
X114312696Y-57553079D01*
X114353519Y-57541748D01*
X114422524Y-57525722D01*
X114514203Y-57506195D01*
X114623050Y-57484362D01*
X114743558Y-57461418D01*
X114809357Y-57449159D01*
X114922135Y-57427901D01*
X115019207Y-57409287D01*
X115095382Y-57394328D01*
X115145469Y-57384036D01*
X115164276Y-57379422D01*
X115164983Y-57378471D01*
X115176961Y-57354310D01*
X115199794Y-57303694D01*
X115230630Y-57233338D01*
X115266613Y-57149958D01*
X115304891Y-57060270D01*
X115342609Y-56970989D01*
X115376913Y-56888832D01*
X115404949Y-56820513D01*
X115423864Y-56772748D01*
X115430803Y-56752254D01*
X115427742Y-56745043D01*
X115407372Y-56710728D01*
X115370422Y-56652970D01*
X115319860Y-56576299D01*
X115258657Y-56485248D01*
X115189781Y-56384350D01*
X115151994Y-56329093D01*
X115086782Y-56232215D01*
X115030871Y-56147193D01*
X114987241Y-56078662D01*
X114958877Y-56031260D01*
X114948759Y-56009623D01*
X114955790Y-55997887D01*
X114985197Y-55962818D01*
X115033441Y-55909745D01*
X115096093Y-55843164D01*
X115168725Y-55767574D01*
X115246908Y-55687472D01*
X115326214Y-55607354D01*
X115402213Y-55531718D01*
X115470478Y-55465062D01*
X115526580Y-55411882D01*
X115566090Y-55376676D01*
X115584579Y-55363942D01*
X115594843Y-55368893D01*
X115632530Y-55391857D01*
X115693348Y-55430938D01*
X115772913Y-55483272D01*
X115866843Y-55545996D01*
X115970754Y-55616246D01*
X116341794Y-55868551D01*
X116651080Y-55741053D01*
X116960365Y-55613555D01*
X117044186Y-55168931D01*
X117128006Y-54724307D01*
X118053454Y-54724307D01*
X118137275Y-55168931D01*
G37*
X118137275Y-55168931D02*
X118221095Y-55613555D01*
X118839667Y-55868551D01*
X119210707Y-55616246D01*
X119284144Y-55566506D01*
X119381499Y-55501218D01*
X119465787Y-55445454D01*
X119532631Y-55402078D01*
X119577654Y-55373953D01*
X119596478Y-55363942D01*
X119608039Y-55371061D01*
X119642596Y-55400894D01*
X119694894Y-55449852D01*
X119760500Y-55513440D01*
X119834983Y-55587163D01*
X119913913Y-55666525D01*
X119992856Y-55747031D01*
X120067384Y-55824185D01*
X120133063Y-55893493D01*
X120185463Y-55950457D01*
X120220153Y-55990584D01*
X120232701Y-56009377D01*
X120229782Y-56017451D01*
X120209571Y-56053469D01*
X120172663Y-56112744D01*
X120122050Y-56190630D01*
X120060725Y-56282481D01*
X119991679Y-56383650D01*
X119953787Y-56438826D01*
X119888606Y-56534884D01*
X119832723Y-56618717D01*
X119789117Y-56685777D01*
X119760769Y-56731519D01*
X119750657Y-56751396D01*
X119750823Y-56752497D01*
X119759743Y-56777694D01*
X119780206Y-56829147D01*
X119809360Y-56900135D01*
X119844353Y-56983935D01*
X119882332Y-57073828D01*
X119920445Y-57163091D01*
X119955839Y-57245003D01*
X119985662Y-57312843D01*
X120007061Y-57359890D01*
X120017184Y-57379422D01*
X120023174Y-57381155D01*
X120059566Y-57388969D01*
X120124427Y-57401915D01*
X120212565Y-57418979D01*
X120318787Y-57439151D01*
X120437902Y-57461418D01*
X120500683Y-57473223D01*
X120615912Y-57495748D01*
X120716662Y-57516550D01*
X120797426Y-57534435D01*
X120852698Y-57548208D01*
X120876971Y-57556674D01*
X120881331Y-57565066D01*
X120888563Y-57606072D01*
X120894246Y-57674368D01*
X120898382Y-57763529D01*
X120900977Y-57867128D01*
X120902036Y-57978740D01*
X120901561Y-58091938D01*
X120899559Y-58200296D01*
X120896033Y-58297389D01*
X120890987Y-58376790D01*
X120884427Y-58432072D01*
X120876356Y-58456810D01*
X120871458Y-58459600D01*
X120834930Y-58471569D01*
X120771565Y-58487405D01*
X120688686Y-58505374D01*
X120593618Y-58523741D01*
X120561542Y-58529591D01*
X120413393Y-58556798D01*
X120296961Y-58578663D01*
X120208209Y-58596093D01*
X120143103Y-58609996D01*
X120097606Y-58621277D01*
X120067682Y-58630843D01*
X120049294Y-58639601D01*
X120038407Y-58648457D01*
X120037142Y-58649943D01*
X120019338Y-58680931D01*
X119992994Y-58737634D01*
X119960661Y-58813399D01*
X119924893Y-58901574D01*
X119888244Y-58995507D01*
X119853266Y-59088547D01*
X119822513Y-59174041D01*
X119798538Y-59245336D01*
X119783895Y-59295782D01*
X119781136Y-59318726D01*
X119782981Y-59321703D01*
X119802075Y-59350493D01*
X119837984Y-59403595D01*
X119887378Y-59476117D01*
X119946927Y-59563167D01*
X120013303Y-59659854D01*
X120031520Y-59686456D01*
X120095577Y-59781875D01*
X120150937Y-59867212D01*
X120194439Y-59937405D01*
X120222924Y-59987394D01*
X120233232Y-60012116D01*
X120231011Y-60018616D01*
X120207858Y-60050644D01*
X120162177Y-60102945D01*
X120097241Y-60171999D01*
X120016319Y-60254286D01*
X119922685Y-60346286D01*
X119869165Y-60397781D01*
X119784542Y-60477983D01*
X119710475Y-60546678D01*
X119650941Y-60600252D01*
X119609917Y-60635085D01*
X119591381Y-60647563D01*
X119578646Y-60642938D01*
X119539436Y-60621057D01*
X119482495Y-60585273D01*
X119415250Y-60540117D01*
X119367438Y-60507165D01*
X119271985Y-60441727D01*
X119170125Y-60372228D01*
X119077088Y-60309075D01*
X118894832Y-60185800D01*
X118741841Y-60268520D01*
X118705817Y-60287613D01*
X118640303Y-60320272D01*
X118589640Y-60342819D01*
X118562564Y-60351226D01*
X118553703Y-60340430D01*
X118531699Y-60299323D01*
X118499199Y-60231549D01*
X118458010Y-60141409D01*
X118409942Y-60033205D01*
X118356802Y-59911237D01*
X118300399Y-59779808D01*
X118242542Y-59643218D01*
X118185038Y-59505767D01*
X118129697Y-59371758D01*
X118078326Y-59245491D01*
X118032735Y-59131268D01*
X117994732Y-59033390D01*
X117966124Y-58956157D01*
X117948721Y-58903871D01*
X117944331Y-58880833D01*
X117944628Y-58880160D01*
X117965077Y-58858863D01*
X118007850Y-58825508D01*
X118064117Y-58787011D01*
X118081877Y-58775256D01*
X118217014Y-58663735D01*
X118328856Y-58530906D01*
X118414755Y-58382298D01*
X118472062Y-58223440D01*
X118498131Y-58059860D01*
X118490313Y-57897088D01*
X118458644Y-57752315D01*
X118401782Y-57606124D01*
X118318888Y-57475703D01*
X118205131Y-57351813D01*
X118160433Y-57312235D01*
X118015935Y-57214723D01*
X117859838Y-57149050D01*
X117696667Y-57114630D01*
X117530943Y-57110874D01*
X117367192Y-57137194D01*
X117209936Y-57193003D01*
X117063698Y-57277714D01*
X116933004Y-57390737D01*
X116822374Y-57531487D01*
X116801105Y-57566342D01*
X116728810Y-57725655D01*
X116690415Y-57891552D01*
X116684914Y-58059737D01*
X116711301Y-58225913D01*
X116768570Y-58385784D01*
X116855717Y-58535053D01*
X116971736Y-58669423D01*
X117115622Y-58784599D01*
X117120294Y-58787702D01*
X117175964Y-58826933D01*
X117217689Y-58860286D01*
X117236746Y-58880833D01*
X117234342Y-58896941D01*
X117219391Y-58943844D01*
X117192881Y-59016539D01*
X117156620Y-59110725D01*
X117112416Y-59222098D01*
X117062076Y-59346358D01*
X117007407Y-59479202D01*
X116950218Y-59616327D01*
X116892316Y-59753432D01*
X116835510Y-59886215D01*
X116781606Y-60010374D01*
X116732412Y-60121606D01*
X116689737Y-60215609D01*
X116655387Y-60288082D01*
X116631171Y-60334722D01*
X116618897Y-60351226D01*
X116608689Y-60348991D01*
X116568586Y-60332926D01*
X116509318Y-60304759D01*
X116439619Y-60268520D01*
X116286629Y-60185800D01*
X116104373Y-60309075D01*
X116050527Y-60345579D01*
X115950374Y-60413784D01*
X115850525Y-60482098D01*
X115766211Y-60540117D01*
X115719679Y-60571736D01*
X115659200Y-60611020D01*
X115614357Y-60637912D01*
X115592455Y-60647883D01*
X115583045Y-60643650D01*
X115549031Y-60617721D01*
X115496595Y-60572070D01*
X115430301Y-60511186D01*
X115354713Y-60439561D01*
X115274396Y-60361683D01*
X115193913Y-60282045D01*
X115117829Y-60205135D01*
X115050707Y-60135445D01*
X114997112Y-60077464D01*
X114961608Y-60035684D01*
X114948759Y-60014593D01*
X114949500Y-60010581D01*
X114964793Y-59977920D01*
X114997462Y-59921412D01*
X115044350Y-59846163D01*
X115102301Y-59757275D01*
X115168157Y-59659854D01*
X115186627Y-59632982D01*
X115251482Y-59538423D01*
X115308609Y-59454827D01*
X115354678Y-59387084D01*
X115386359Y-59340086D01*
X115400324Y-59318726D01*
X115400668Y-59317811D01*
X115396546Y-59291678D01*
X115380807Y-59238740D01*
X115356004Y-59165647D01*
X115324689Y-59079052D01*
X115289417Y-58985608D01*
X115252740Y-58891965D01*
X115217212Y-58804777D01*
X115185386Y-58730695D01*
X115159816Y-58676371D01*
X115143053Y-58648457D01*
X115141374Y-58646724D01*
X115129372Y-58637956D01*
X115109103Y-58629115D01*
X115076529Y-58619292D01*
X115027616Y-58607583D01*
X114958327Y-58593080D01*
X114864625Y-58574876D01*
X114742476Y-58552066D01*
X114587842Y-58523741D01*
X114555770Y-58517780D01*
X114463893Y-58499352D01*
X114386607Y-58481892D01*
X114331236Y-58467133D01*
X114305105Y-58456810D01*
X114300733Y-58448197D01*
X114293445Y-58406826D01*
X114287669Y-58338241D01*
X114283410Y-58248868D01*
X114280673Y-58145135D01*
X114279462Y-58033465D01*
X114279782Y-57920287D01*
X114281636Y-57812026D01*
X114285030Y-57715108D01*
X114289967Y-57635959D01*
X114296452Y-57581006D01*
X114304489Y-57556674D01*
X114312696Y-57553079D01*
X114353519Y-57541748D01*
X114422524Y-57525722D01*
X114514203Y-57506195D01*
X114623050Y-57484362D01*
X114743558Y-57461418D01*
X114809357Y-57449159D01*
X114922135Y-57427901D01*
X115019207Y-57409287D01*
X115095382Y-57394328D01*
X115145469Y-57384036D01*
X115164276Y-57379422D01*
X115164983Y-57378471D01*
X115176961Y-57354310D01*
X115199794Y-57303694D01*
X115230630Y-57233338D01*
X115266613Y-57149958D01*
X115304891Y-57060270D01*
X115342609Y-56970989D01*
X115376913Y-56888832D01*
X115404949Y-56820513D01*
X115423864Y-56772748D01*
X115430803Y-56752254D01*
X115427742Y-56745043D01*
X115407372Y-56710728D01*
X115370422Y-56652970D01*
X115319860Y-56576299D01*
X115258657Y-56485248D01*
X115189781Y-56384350D01*
X115151994Y-56329093D01*
X115086782Y-56232215D01*
X115030871Y-56147193D01*
X114987241Y-56078662D01*
X114958877Y-56031260D01*
X114948759Y-56009623D01*
X114955790Y-55997887D01*
X114985197Y-55962818D01*
X115033441Y-55909745D01*
X115096093Y-55843164D01*
X115168725Y-55767574D01*
X115246908Y-55687472D01*
X115326214Y-55607354D01*
X115402213Y-55531718D01*
X115470478Y-55465062D01*
X115526580Y-55411882D01*
X115566090Y-55376676D01*
X115584579Y-55363942D01*
X115594843Y-55368893D01*
X115632530Y-55391857D01*
X115693348Y-55430938D01*
X115772913Y-55483272D01*
X115866843Y-55545996D01*
X115970754Y-55616246D01*
X116341794Y-55868551D01*
X116651080Y-55741053D01*
X116960365Y-55613555D01*
X117044186Y-55168931D01*
X117128006Y-54724307D01*
X118053454Y-54724307D01*
X118137275Y-55168931D01*
D12*
X119450000Y-96627500D02*
X118340000Y-96627500D01*
X117250000Y-95577500D02*
X117750000Y-95577500D01*
X116660000Y-100337500D02*
X115550000Y-100337500D01*
X116660000Y-96627500D02*
X115550000Y-96627500D01*
X117500000Y-96077500D02*
X117250000Y-95577500D01*
X119450000Y-100337500D02*
X118340000Y-100337500D01*
X117750000Y-95577500D02*
X117500000Y-96077500D01*
%TD*%
M02*
