M48
; DRILL file {KiCad 6.0.2+dfsg-1} date Do 31 Aug 2023 23:38:11 CEST
; FORMAT={-:-/ absolute / inch / decimal}
; #@! TF.CreationDate,2023-08-31T23:38:11+02:00
; #@! TF.GenerationSoftware,Kicad,Pcbnew,6.0.2+dfsg-1
; #@! TF.FileFunction,Plated,1,2,PTH
FMAT,2
INCH
; #@! TA.AperFunction,Plated,PTH,ViaDrill
T1C0.0157
; #@! TA.AperFunction,Plated,PTH,ComponentDrill
T2C0.0197
; #@! TA.AperFunction,Plated,PTH,ComponentDrill
T3C0.0300
; #@! TA.AperFunction,Plated,PTH,ComponentDrill
T4C0.0350
; #@! TA.AperFunction,Plated,PTH,ComponentDrill
T5C0.0472
; #@! TA.AperFunction,Plated,PTH,ComponentDrill
T6C0.0610
; #@! TA.AperFunction,Plated,PTH,ComponentDrill
T7C0.0748
; #@! TA.AperFunction,Plated,PTH,ComponentDrill
T8C0.0791
; #@! TA.AperFunction,Plated,PTH,ComponentDrill
T9C0.0827
; #@! TA.AperFunction,Plated,PTH,ComponentDrill
T10C0.1260
%
G90
G05
T1
X4.35Y-3.4
X4.35Y-3.45
X4.35Y-3.8
X4.35Y-3.85
X4.4Y-3.4
X4.4Y-3.45
X4.4Y-3.85
X4.45Y-3.4
X4.45Y-3.45
X4.5Y-3.4
X4.5Y-3.45
X4.55Y-3.4
X4.55Y-3.45
X4.55Y-3.5
X4.55Y-3.55
X4.55Y-3.6
X4.55Y-3.65
X4.7Y-3.55
X4.7Y-3.6
X4.7Y-3.65
X4.8Y-3.4
X4.8Y-3.45
X4.85Y-3.4
X4.85Y-3.45
X4.85Y-3.85
X4.9Y-3.4
X4.9Y-3.45
X4.9Y-3.8
X4.9Y-3.85
T2
X3.9655Y-2.06
X3.9932Y-1.9932
X3.9932Y-2.1268
X4.06Y-1.9655
X4.06Y-2.1545
X4.1268Y-1.9932
X4.1268Y-2.1268
X4.1545Y-2.06
X5.1055Y-2.06
X5.1332Y-1.9932
X5.1332Y-2.1268
X5.2Y-1.9655
X5.2Y-2.1545
X5.2668Y-1.9932
X5.2668Y-2.1268
X5.2945Y-2.06
T3
X4.4329Y-3.26
X4.5329Y-3.26
X4.8329Y-3.26
T4
X4.627Y-3.44
X4.727Y-3.44
T5
X4.4843Y-3.14
X4.87Y-2.02
T6
X4.7757Y-3.1361
T7
X4.4764Y-3.7483
X4.7756Y-3.7483
T8
X4.427Y-3.64
X4.827Y-3.64
T9
X4.26Y-1.9
X5.0Y-1.9
T10
X4.06Y-2.06
X5.2Y-2.06
X5.2Y-2.06
T0
M30
